<svg
        xmlns="http://www.w3.org/2000/svg"
        baseProfile="full"
        version="1.1"
        width="360px"
        height="300px"
        style="fill: none; width: 360px; height: 300px;"
>
    <path
            d=""
            style="stroke-width: 10; stroke-linecap: round; stroke-linejoin: round; stroke: rgb(204, 204, 204); fill: none;"
            transform="rotate(240 285 352.5)"
    />
    <path
            d=""
            style="stroke-width: 10; stroke-linecap: round; stroke-linejoin: round; stroke: rgb(153, 153, 153); fill: none;"
            transform="rotate(120 285 352.5)"
    />
    <path
            d="M60,60 L60,60 L60,240 M120,150 A60,90 0 0,0 60,240 M180,240 A60,90 0 0,0 120,150 M180,240 A60,90 0 0,1 240,150 M300,240 A60,90 0 0,0 240,150 M300,240 L300,240 L300,60 L300,60 M180,240 A60,90 0 0,1 120,150 M180,60 A60,90 0 0,0 120,150 M240,150 A60,90 0 0,0 180,60 M180,240 A60,90 0 0,0 240,150 M180,150 L180,150 L180,150 L180,150 M60,60 L60,60 L300,60 M60,240 L60,240 L60,60 M120,150 A60,90 0 0,1 60,60 M180,60 A60,90 0 0,1 120,150 M180,60 A60,90 0 0,0 240,150 M300,60 A60,90 0 0,1 240,150 M300,60 L300,60 L300,240 L300,240 M180,60 A60,90 0 0,0 120,150 M180,240 A60,90 0 0,1 120,150 M240,150 A60,90 0 0,1 180,240 M180,60 A60,90 0 0,1 240,150 M180,150 L180,150 L180,150 L180,150 M60,240 L60,240 L300,240 "
            style="stroke-width: 6; stroke-linecap: round; stroke-linejoin: round; stroke: rgb(255, 255, 255); fill: none;"
            transform="rotate(0 285 352.5)"
    />
</svg>
